Coordinates
version=1
nRows=29
nColumns=22
inDegrees=yes

Units are S.I. units (second, meters, Newtons, ...)
If the header above contains a line with 'inDegrees', this indicates whether rotational values are in degrees (yes) or radians (no).

endheader
time	pelvis_tilt	pelvis_list	pelvis_rotation	pelvis_tx	pelvis_ty	pelvis_tz	hip_flexion_r	hip_adduction_r	hip_rotation_r	knee_angle_r	ankle_angle_r	subtalar_angle_r	hip_flexion_l	hip_adduction_l	hip_rotation_l	knee_angle_l	ankle_angle_l	subtalar_angle_l	lumbar_extension	lumbar_bending	lumbar_rotation
      0.01000000	     -0.49936666	     -4.31482181	    -11.04641793	      0.21651905	      1.01985208	      0.59862373	      1.58015318	      6.62996216	     -1.30990807	     -9.20822912	      7.93401794	     -2.28387003	      0.88491259	     -2.38335979	     -3.43376868	    -10.53895212	     11.66533386	     -3.96092195	    -10.86673611	      4.10237131	      2.64723724
      0.02000000	     -0.50237612	     -4.31673141	    -11.04625380	      0.21653199	      1.01984397	      0.59862181	      1.58050383	      6.63244260	     -1.31268340	     -9.20434401	      7.93416100	     -2.28339921	      0.88822242	     -2.38610702	     -3.43473195	    -10.54096154	     11.66253857	     -3.96178695	    -10.87105725	      4.10341024	      2.64704856
      0.03000000	     -0.50414556	     -4.31688357	    -11.04611913	      0.21656767	      1.01983884	      0.59861972	      1.58005236	      6.63230054	     -1.31278464	     -9.20447662	      7.93415180	     -2.28338664	      0.88796412	     -2.38620008	     -3.43475337	    -10.54127598	     11.66247129	     -3.96181852	    -10.87173808	      4.10323934	      2.64708392
      0.04000000	     -0.50822271	     -4.31748642	    -11.04584958	      0.21658844	      1.01983212	      0.59862029	      1.58092638	      6.63364781	     -1.31529770	     -9.20030867	      7.93468000	     -2.28321068	      0.89102923	     -2.38793448	     -3.43525783	    -10.54106420	     11.66206000	     -3.96226419	    -10.87624137	      4.10122783	      2.64787090
      0.05000000	     -0.51058699	     -4.31776735	    -11.04565343	      0.21663110	      1.01982588	      0.59861611	      1.58044618	      6.63360292	     -1.31546081	     -9.20033506	      7.93469686	     -2.28320413	      0.89065487	     -2.38783324	     -3.43531683	    -10.54136584	     11.66203567	     -3.96229486	    -10.87711373	      4.10084098	      2.64790458
      0.06000000	     -0.51621923	     -4.31817517	    -11.04464113	      0.21665183	      1.01981833	      0.59862016	      1.58193900	      6.63539282	     -1.31851316	     -9.19409173	      7.93553175	     -2.28311065	      0.89418539	     -2.38983427	     -3.43646560	    -10.53870153	     11.66224472	     -3.96273078	    -10.88183679	      4.09659764	      2.64805929
      0.07000000	     -0.52643732	     -4.31698841	    -11.03968207	      0.21671512	      1.01980063	      0.59861728	      1.57982994	      6.63560458	     -1.32978533	     -9.17534502	      7.93715757	     -2.28297091	      0.89995853	     -2.39041623	     -3.44018216	    -10.53434804	     11.66317792	     -3.96508302	    -10.86932925	      4.09397463	      2.64517363
      0.08000000	     -0.52915358	     -4.31734159	    -11.03948532	      0.21675955	      1.01979430	      0.59861123	      1.57942188	      6.63548383	     -1.32981986	     -9.17551128	      7.93713800	     -2.28297303	      0.89946496	     -2.39030770	     -3.44021025	    -10.53450869	     11.66318771	     -3.96510518	    -10.87040332	      4.09346615	      2.64501995
      0.09000000	     -0.53489037	     -4.31771391	    -11.03830862	      0.21677821	      1.01978526	      0.59861528	      1.58212758	      6.63727173	     -1.33076105	     -9.17145003	      7.93746963	     -2.28293042	      0.90187410	     -2.39213295	     -3.44111251	    -10.52924399	     11.66383087	     -3.96542211	    -10.87531605	      4.08852102	      2.64243930
      0.10000000	     -0.54577269	     -4.31475785	    -11.03534966	      0.21684567	      1.01976586	      0.59861590	      1.58392295	      6.63607821	     -1.33281432	     -9.15980461	      7.93827532	     -2.28289078	      0.90146525	     -2.39045795	     -3.44252385	    -10.51152381	     11.66602486	     -3.96743744	    -10.85997486	      4.08530989	      2.62659372
      0.11000000	     -0.54815182	     -4.31527418	    -11.03512364	      0.21688818	      1.01975948	      0.59860748	      1.58356205	      6.63594606	     -1.33279452	     -9.15996740	      7.93827976	     -2.28289260	      0.90096232	     -2.39024557	     -3.44251136	    -10.51167352	     11.66600423	     -3.96745883	    -10.86081731	      4.08477487	      2.62648090
      0.12000000	     -0.55299041	     -4.31544576	    -11.03247233	      0.21691689	      1.01974992	      0.59861072	      1.58529775	      6.63749856	     -1.33253969	     -9.15687727	      7.93910119	     -2.28282678	      0.90189384	     -2.39161800	     -3.44283000	    -10.50572706	     11.66625648	     -3.96789342	    -10.86242566	      4.08004059	      2.62345802
      0.13000000	     -0.55507811	     -4.31584640	    -11.03228240	      0.21696031	      1.01974380	      0.59860322	      1.58484994	      6.63730220	     -1.33246613	     -9.15706646	      7.93913344	     -2.28282713	      0.90124628	     -2.39134952	     -3.44283685	    -10.50579194	     11.66625095	     -3.96791930	    -10.86279070	      4.07974118	      2.62318982
      0.14000000	     -0.56438540	     -4.31317601	    -11.02969988	      0.21703849	      1.01972761	      0.59859971	      1.58506609	      6.63567963	     -1.32846243	     -9.14695404	      7.94426305	     -2.28250824	      0.89566579	     -2.38873730	     -3.44144813	    -10.48198286	     11.66750442	     -3.97016589	    -10.84585776	      4.07914644	      2.60062029
      0.15000000	     -0.56617270	     -4.31350266	    -11.02945369	      0.21708151	      1.01972350	      0.59859344	      1.58463112	      6.63554568	     -1.32834674	     -9.14725694	      7.94428799	     -2.28250240	      0.89508807	     -2.38848555	     -3.44128113	    -10.48226750	     11.66744614	     -3.97021098	    -10.84619163	      4.07886105	      2.60044568
      0.16000000	     -0.56730853	     -4.31364985	    -11.02778188	      0.21714345	      1.01971877	      0.59858667	      1.58264479	      6.63500103	     -1.32651342	     -9.14884606	      7.94506772	     -2.28240185	      0.89229498	     -2.38775784	     -3.43925241	    -10.48176606	     11.66738109	     -3.97084602	    -10.84081133	      4.07947430	      2.59591836
      0.17000000	     -0.56898098	     -4.31398281	    -11.02770532	      0.21718529	      1.01971624	      0.59858015	      1.58231808	      6.63494699	     -1.32639137	     -9.14903571	      7.94514296	     -2.28239730	      0.89181707	     -2.38740767	     -3.43912204	    -10.48185374	     11.66740921	     -3.97089398	    -10.84122508	      4.07938601	      2.59542959
      0.18000000	     -0.56982639	     -4.31425075	    -11.02804488	      0.21725333	      1.01971300	      0.59856545	      1.58004571	      6.63360785	     -1.32400352	     -9.15106628	      7.94653776	     -2.28237113	      0.88797551	     -2.38585721	     -3.43677550	    -10.48118192	     11.66849118	     -3.97165660	    -10.83461360	      4.08409890	      2.58608908
      0.19000000	     -0.57187821	     -4.31531695	    -11.02479648	      0.21731451	      1.01970707	      0.59854818	      1.57873080	      6.63411584	     -1.32004927	     -9.15217346	      7.95016085	     -2.28237657	      0.88498920	     -2.38520879	     -3.43190166	    -10.47696188	     11.67185476	     -3.97349557	    -10.82882983	      4.08990974	      2.56738314
      0.20000000	     -0.57345719	     -4.31552703	    -11.02468522	      0.21735617	      1.01970528	      0.59854099	      1.57826512	      6.63403423	     -1.32004315	     -9.15243289	      7.95021122	     -2.28238139	      0.88463671	     -2.38506972	     -3.43172469	    -10.47724912	     11.67190544	     -3.97354167	    -10.82929243	      4.08981598	      2.56715026
      0.21000000	     -0.57344048	     -4.31584309	    -11.02419548	      0.21742093	      1.01970366	      0.59852196	      1.57536208	      6.63245248	     -1.31963702	     -9.15445992	      7.95106398	     -2.28254349	      0.88212765	     -2.38341791	     -3.42914515	    -10.48022975	     11.67306412	     -3.97420638	    -10.82438184	      4.09469159	      2.56359559
      0.22000000	     -0.57401368	     -4.31619955	    -11.02310367	      0.21748089	      1.01969893	      0.59850115	      1.57295406	      6.63112925	     -1.31949698	     -9.15565781	      7.95222295	     -2.28278705	      0.88036444	     -2.38194900	     -3.42671712	    -10.48235074	     11.67480075	     -3.97499821	    -10.82082010	      4.09959852	      2.56000748
      0.23000000	     -0.57551617	     -4.31636111	    -11.02296906	      0.21752528	      1.01969549	      0.59849245	      1.57209439	      6.63100379	     -1.31951707	     -9.15609101	      7.95235539	     -2.28282224	      0.87998413	     -2.38149598	     -3.42644765	    -10.48275497	     11.67502499	     -3.97509385	    -10.82084142	      4.10010418	      2.55966825
      0.24000000	     -0.57545999	     -4.31629961	    -11.02275989	      0.21759857	      1.01969278	      0.59846088	      1.56825844	      6.62803187	     -1.31979119	     -9.15749449	      7.95359871	     -2.28314169	      0.87708617	     -2.37844236	     -3.42443203	    -10.48589767	     11.67691074	     -3.97580529	    -10.81429882	      4.10835026	      2.55800298
      0.25000000	     -0.58179639	     -4.32143761	    -11.01496528	      0.21767411	      1.01967793	      0.59842786	      1.56210525	      6.63242835	     -1.33134981	     -9.14257486	      7.96791116	     -2.28528473	      0.87848337	     -2.38246734	     -3.41089237	    -10.48349109	     11.69515378	     -3.98303282	    -10.80351563	      4.12295141	      2.54697900
      0.26000000	     -0.58198127	     -4.32135753	    -11.01502654	      0.21773600	      1.01967516	      0.59840754	      1.55978652	      6.63041291	     -1.33199648	     -9.14491088	      7.96765876	     -2.28544761	      0.87651288	     -2.38042996	     -3.40924379	    -10.48674853	     11.69555776	     -3.98379223	    -10.79973724	      4.12778751	      2.54724893
      0.27000000	     -0.58303513	     -4.32111451	    -11.01617140	      0.21779600	      1.01967280	      0.59838255	      1.55748703	      6.62799029	     -1.33370755	     -9.14514867	      7.96821115	     -2.28565373	      0.87519054	     -2.37782281	     -3.40776661	    -10.48877079	     11.69632519	     -3.98461316	    -10.79623052	      4.13409504	      2.54818090
      0.28000000	     -0.58434210	     -4.32087441	    -11.01717341	      0.21786099	      1.01967064	      0.59835666	      1.55466451	      6.62551499	     -1.33601968	     -9.14439016	      7.96936207	     -2.28587556	      0.87358503	     -2.37502926	     -3.40652160	    -10.49020881	     11.69738184	     -3.98551562	    -10.79128598	      4.14117200	      2.54975738
      0.29000000	     -0.58594939	     -4.32063512	    -11.01769215	      0.21793036	      1.01966855	      0.59832898	      1.55152381	      6.62299819	     -1.33857081	     -9.14273254	      7.97098711	     -2.28607822	      0.87169667	     -2.37216929	     -3.40564791	    -10.49088510	     11.69872496	     -3.98647770	    -10.78525064	      4.14894337	      2.55170753
